# xmcd
#
# Track frame offsets: 
#        150
#        18224
#        35896
#        55673
#        80226
#        98851
#        111833
#        131065
#        164142
#        178368
#        194220
#        207808
#
# Disc length: 3053 seconds
#
# Revision: 0
# Processed by: cddbd v1.5.2PL0 Copyright (c) Steve Scherf et al.
# Submitted via: ExactAudioCopy v1.0b4
#
DISCID=b80beb0c
DTITLE=Guy Belanger - Blues Turn
DYEAR=2014
DGENRE=Blues
TTITLE0=Take A Walk Around The Corner
TTITLE1=Queen City Storm
TTITLE2=Highway Song
TTITLE3=The Dark End Of The Street
TTITLE4=Trouble
TTITLE5=My Lil' Desoto
TTITLE6=Forty Days And Forty Nights
TTITLE7=Last Night
TTITLE8=Letter To A Friend
TTITLE9=Corrina, Corrina
TTITLE10=Great Change (Since I've Been Born)
TTITLE11=Death Don't Have No Mercy
EXTD=
EXTT0=
EXTT1=
EXTT2=
EXTT3=
EXTT4=
EXTT5=
EXTT6=
EXTT7=
EXTT8=
EXTT9=
EXTT10=
EXTT11=
PLAYORDER=
